<svg xmlns="http://www.w3.org/2000/svg" viewBox="0 0 1200 1200"><g id="Graphic_Elements" data-name="Graphic Elements"><path d="M68.86,242.66c30.35-1,61.79-1.89,92.76.25-10.08,56-2.78,115.17,23.15,166.45C229.7,498.2,326.71,555.22,426,553.63c111.46-1.79,210.05-82.27,323.56-55C862.15,525.7,951.11,628.18,1011.4,721.29,1088.09,839.73,1131.27,978,1134.28,1119c.22,10.2,15.85,8.76,15.72-1.33-2.89-215.94-94.23-442.8-264.93-580.79-81.05-65.52-172.6-91.71-274.59-66.25C557.1,484,506.07,506.91,451.16,513.84a230,230,0,0,1-156.69-37c-78.12-52.2-110.28-143.25-94.28-229.42,35.13,6,68.73,17.79,98.31,39.91,13.73,10.28,31.87-2.66,27-19Q298,176.58,270.14,84.9c-3.17-10.39-16.73-14-25.19-8-56.52,40-112.56,80.67-167.54,122.75q-10,5.67-19.93,11.69C42,220.81,52.93,243.2,68.86,242.66Z"/></g></svg>