<svg width="133" height="58" viewBox="0 0 133 58" fill="none" xmlns="http://www.w3.org/2000/svg">
<path d="M9.04297 21.3594C9.53776 21.3594 10.0586 21.2747 10.6055 21.1055C11.1523 20.9232 11.6927 20.6823 12.2266 20.3828C12.7734 20.0703 13.2878 19.7057 13.7695 19.2891C14.2643 18.8594 14.694 18.3971 15.0586 17.9023C15.4362 17.3945 15.7357 16.8672 15.957 16.3203C16.1784 15.7604 16.2891 15.2005 16.2891 14.6406C16.2891 14.4062 16.2435 14.1589 16.1523 13.8984C16.0742 13.638 15.9375 13.3971 15.7422 13.1758C15.5599 12.9544 15.3125 12.7721 15 12.6289C14.6875 12.4727 14.3034 12.3945 13.8477 12.3945C12.9622 12.3945 12.1159 12.6029 11.3086 13.0195C10.5143 13.4362 9.77214 14.0026 9.08203 14.7188C8.39193 15.4349 7.76042 16.2747 7.1875 17.2383C6.6276 18.1888 6.14583 19.2044 5.74219 20.2852C5.35156 21.3659 5.04557 22.4792 4.82422 23.625C4.61589 24.7708 4.51172 25.8841 4.51172 26.9648C4.51172 28.2018 4.6224 29.4062 4.84375 30.5781C5.0651 31.737 5.41667 32.7656 5.89844 33.6641C6.39323 34.5625 7.03776 35.2852 7.83203 35.832C8.6263 36.3659 9.60286 36.6328 10.7617 36.6328C11.6081 36.6328 12.3698 36.5091 13.0469 36.2617C13.724 36.0143 14.3034 35.7474 14.7852 35.4609C15.2669 35.1615 15.638 34.888 15.8984 34.6406C16.1589 34.3802 16.3021 34.2435 16.3281 34.2305C16.4974 33.944 16.6862 33.7747 16.8945 33.7227C17.1159 33.6706 17.3242 33.6966 17.5195 33.8008C17.7279 33.9049 17.9167 34.0677 18.0859 34.2891C18.2552 34.4974 18.3854 34.7253 18.4766 34.9727C18.5807 35.2201 18.6263 35.4674 18.6133 35.7148C18.6003 35.9622 18.5156 36.1641 18.3594 36.3203C18.3333 36.3464 18.2357 36.444 18.0664 36.6133C17.8971 36.7826 17.6562 36.9909 17.3438 37.2383C17.0312 37.4857 16.6471 37.7461 16.1914 38.0195C15.7357 38.306 15.2214 38.5664 14.6484 38.8008C14.0755 39.0482 13.4375 39.25 12.7344 39.4062C12.0443 39.5625 11.2956 39.6406 10.4883 39.6406C9.05599 39.6406 7.77344 39.3411 6.64062 38.7422C5.50781 38.1432 4.54427 37.2969 3.75 36.2031C2.96875 35.0964 2.36979 33.7617 1.95312 32.1992C1.53646 30.6367 1.32812 28.8919 1.32812 26.9648C1.32812 25.6628 1.46484 24.3281 1.73828 22.9609C2.01172 21.5938 2.40885 20.2656 2.92969 18.9766C3.46354 17.6745 4.10807 16.4505 4.86328 15.3047C5.61849 14.1458 6.47786 13.1367 7.44141 12.2773C8.40495 11.418 9.46615 10.7409 10.625 10.2461C11.7839 9.73828 13.0273 9.48438 14.3555 9.48438C15.0716 9.48438 15.7422 9.59505 16.3672 9.81641C16.9922 10.0378 17.526 10.3698 17.9688 10.8125C18.4245 11.2552 18.7826 11.8086 19.043 12.4727C19.3034 13.1237 19.4336 13.8854 19.4336 14.7578C19.4336 15.5781 19.2708 16.3789 18.9453 17.1602C18.6328 17.9414 18.2096 18.6836 17.6758 19.3867C17.1419 20.0768 16.5169 20.7148 15.8008 21.3008C15.0977 21.8867 14.349 22.3945 13.5547 22.8242C12.7734 23.2409 11.9792 23.5664 11.1719 23.8008C10.3646 24.0352 9.58984 24.1523 8.84766 24.1523C8.35286 24.1523 7.92969 24.0026 7.57812 23.7031C7.23958 23.3906 7.07031 22.9023 7.07031 22.2383C7.07031 22.0951 7.07682 21.9518 7.08984 21.8086C7.11589 21.6523 7.14844 21.5156 7.1875 21.3984C7.22656 21.2682 7.27214 21.1641 7.32422 21.0859C7.38932 21.0078 7.45443 20.9688 7.51953 20.9688C7.58464 20.9688 7.64323 20.9883 7.69531 21.0273C7.76042 21.0664 7.83854 21.112 7.92969 21.1641C8.03385 21.2161 8.17057 21.2617 8.33984 21.3008C8.50911 21.3398 8.74349 21.3594 9.04297 21.3594ZM32.2461 36.4766C32.6497 36.4766 32.9948 36.3333 33.2812 36.0469C33.5807 35.7604 33.8346 35.4023 34.043 34.9727C34.2643 34.543 34.4401 34.0807 34.5703 33.5859C34.7135 33.0781 34.8307 32.6029 34.9219 32.1602C35.013 31.7435 35.1432 31.444 35.3125 31.2617C35.4948 31.0664 35.6901 30.9688 35.8984 30.9688C36.0547 30.9688 36.2109 31.0208 36.3672 31.125C36.5365 31.2161 36.6862 31.3398 36.8164 31.4961C36.9596 31.6523 37.0703 31.8281 37.1484 32.0234C37.2396 32.2188 37.2852 32.4141 37.2852 32.6094C37.2852 32.6354 37.2852 32.668 37.2852 32.707C37.2852 32.7461 37.2721 32.8047 37.2461 32.8828C37.0768 33.5469 36.8424 34.2435 36.543 34.9727C36.2565 35.7018 35.8854 36.3724 35.4297 36.9844C34.974 37.5964 34.4206 38.1042 33.7695 38.5078C33.1315 38.9115 32.3828 39.1133 31.5234 39.1133C30.8203 39.1133 30.2083 38.9635 29.6875 38.6641C29.1667 38.3646 28.7565 37.9674 28.457 37.4727C28.0534 37.9284 27.5651 38.3125 26.9922 38.625C26.4323 38.9505 25.7747 39.1133 25.0195 39.1133C24.2383 39.1133 23.5482 38.957 22.9492 38.6445C22.3633 38.332 21.8685 37.9089 21.4648 37.375C21.0612 36.8281 20.7552 36.1901 20.5469 35.4609C20.3516 34.7188 20.2539 33.9245 20.2539 33.0781C20.2539 31.4115 20.5208 29.9141 21.0547 28.5859C21.5885 27.2578 22.2982 26.1315 23.1836 25.207C24.069 24.2695 25.0781 23.5534 26.2109 23.0586C27.3568 22.5638 28.5417 22.3164 29.7656 22.3164C30.3125 22.3164 30.7552 22.4661 31.0938 22.7656C31.4323 23.0651 31.6016 23.4753 31.6016 23.9961C31.6016 24.3346 31.5625 24.5755 31.4844 24.7188C31.4193 24.849 31.2891 24.9141 31.0938 24.9141C30.9115 24.9141 30.7227 24.901 30.5273 24.875C30.332 24.849 30.1302 24.8359 29.9219 24.8359C29.1667 24.8359 28.3984 25.0052 27.6172 25.3438C26.8359 25.6693 26.1263 26.1771 25.4883 26.8672C24.8633 27.5443 24.349 28.4102 23.9453 29.4648C23.5417 30.5065 23.3398 31.75 23.3398 33.1953C23.3398 34.25 23.5417 35.0638 23.9453 35.6367C24.349 36.1966 24.9023 36.4766 25.6055 36.4766C26.1523 36.4766 26.6081 36.2747 26.9727 35.8711C27.3372 35.4544 27.6302 34.9661 27.8516 34.4062V28.2344C27.8516 28.0391 27.8385 27.8763 27.8125 27.7461C27.7995 27.6159 27.7799 27.5052 27.7539 27.4141C27.7409 27.3229 27.7279 27.2448 27.7148 27.1797C27.7018 27.1016 27.6953 27.0299 27.6953 26.9648C27.6953 26.7565 27.793 26.5938 27.9883 26.4766C28.1966 26.3464 28.444 26.2812 28.7305 26.2812C29.3945 26.2812 29.9219 26.457 30.3125 26.8086C30.7031 27.1471 30.8984 27.5573 30.8984 28.0391V34.6406C30.8984 34.862 30.9245 35.0833 30.9766 35.3047C31.0286 35.513 31.1068 35.7083 31.2109 35.8906C31.3151 36.0599 31.4518 36.2031 31.6211 36.3203C31.8034 36.4245 32.0117 36.4766 32.2461 36.4766ZM37.3828 32.5117C37.2786 32.9284 37.0833 33.1888 36.7969 33.293C36.5104 33.3841 36.224 33.3711 35.9375 33.2539C35.6641 33.1367 35.4297 32.9349 35.2344 32.6484C35.0521 32.362 35 32.0495 35.0781 31.7109C35.2734 30.8255 35.5534 29.849 35.918 28.7812C36.2956 27.7005 36.6667 26.6263 37.0312 25.5586C36.8359 25.2591 36.6797 24.9596 36.5625 24.6602C36.4453 24.3477 36.3867 24.0221 36.3867 23.6836C36.3867 23.3451 36.5104 22.9935 36.7578 22.6289C37.0182 22.2513 37.3242 21.9062 37.6758 21.5938C38.0404 21.2812 38.4115 21.0273 38.7891 20.832C39.1797 20.6237 39.5117 20.5195 39.7852 20.5195C40.2669 20.5195 40.625 20.6823 40.8594 21.0078C41.1068 21.3333 41.2305 21.7695 41.2305 22.3164C41.2305 22.6159 41.1784 22.9154 41.0742 23.2148C40.9831 23.5013 40.8789 23.7747 40.7617 24.0352C40.6445 24.2826 40.5339 24.4974 40.4297 24.6797C40.3385 24.862 40.2865 24.9792 40.2734 25.0312C40.7422 25.8646 41.2305 26.6003 41.7383 27.2383C42.2461 27.8763 42.7083 28.5078 43.125 29.1328C43.5547 29.7578 43.9062 30.4219 44.1797 31.125C44.4531 31.8281 44.5898 32.6549 44.5898 33.6055C44.5898 33.8398 44.5703 34.0807 44.5312 34.3281C44.5052 34.5755 44.4596 34.8099 44.3945 35.0312C44.8633 34.9401 45.2734 34.7969 45.625 34.6016C45.9896 34.4062 46.3021 34.1849 46.5625 33.9375C46.8359 33.6771 47.0573 33.3971 47.2266 33.0977C47.4089 32.7982 47.5586 32.4857 47.6758 32.1602C47.819 31.7826 47.9622 31.5091 48.1055 31.3398C48.2487 31.1706 48.4115 31.0859 48.5938 31.0859C48.763 31.0859 48.9323 31.1445 49.1016 31.2617C49.2839 31.3659 49.4401 31.5026 49.5703 31.6719C49.7135 31.8411 49.8242 32.0169 49.9023 32.1992C49.9935 32.3815 50.0391 32.5443 50.0391 32.6875C50.0391 32.8828 49.987 33.1172 49.8828 33.3906C49.7786 33.6641 49.6354 33.944 49.4531 34.2305C49.2839 34.5169 49.0885 34.7969 48.8672 35.0703C48.6458 35.3307 48.418 35.5586 48.1836 35.7539C47.5586 36.2617 46.8229 36.6914 45.9766 37.043C45.1302 37.3815 44.082 37.5964 42.832 37.6875C42.3503 38.1042 41.7773 38.4427 41.1133 38.7031C40.4622 38.9766 39.7266 39.1133 38.9062 39.1133C38.4896 39.1133 38.0599 39.0612 37.6172 38.957C37.1875 38.8529 36.7708 38.7161 36.3672 38.5469C35.9766 38.3906 35.6185 38.2148 35.293 38.0195C34.9674 37.8242 34.707 37.6289 34.5117 37.4336C34.0169 36.9648 33.6979 36.4961 33.5547 36.0273C33.4115 35.5456 33.3789 35.1159 33.457 34.7383C33.5221 34.3607 33.6589 34.0547 33.8672 33.8203C34.0755 33.5729 34.2904 33.4492 34.5117 33.4492C34.6419 33.4492 34.8438 33.5078 35.1172 33.625C35.4036 33.7292 35.7292 33.8724 36.0938 34.0547C36.4583 34.224 36.8555 34.4062 37.2852 34.6016C37.7148 34.7969 38.1445 34.9857 38.5742 35.168C39.0039 35.3372 39.4206 35.4805 39.8242 35.5977C40.2409 35.7018 40.6185 35.7539 40.957 35.7539C41.1784 35.4935 41.3802 35.1484 41.5625 34.7188C41.7448 34.2891 41.8359 33.8203 41.8359 33.3125C41.8359 32.6875 41.7513 32.1081 41.582 31.5742C41.4128 31.0404 41.1914 30.5456 40.918 30.0898C40.6445 29.6341 40.332 29.2109 39.9805 28.8203C39.6419 28.4167 39.2969 28.0391 38.9453 27.6875C38.6328 28.4557 38.3594 29.2174 38.125 29.9727C37.8906 30.7148 37.6432 31.5612 37.3828 32.5117ZM59.1992 36.4766C59.6029 36.4766 59.9479 36.3333 60.2344 36.0469C60.5339 35.7604 60.7878 35.4023 60.9961 34.9727C61.2174 34.543 61.3932 34.0807 61.5234 33.5859C61.6667 33.0781 61.7839 32.6029 61.875 32.1602C61.9661 31.7435 62.0964 31.444 62.2656 31.2617C62.4479 31.0664 62.6432 30.9688 62.8516 30.9688C63.0078 30.9688 63.1641 31.0208 63.3203 31.125C63.4896 31.2161 63.6393 31.3398 63.7695 31.4961C63.9128 31.6523 64.0234 31.8281 64.1016 32.0234C64.1927 32.2188 64.2383 32.4141 64.2383 32.6094C64.2383 32.6354 64.2383 32.668 64.2383 32.707C64.2383 32.7461 64.2253 32.8047 64.1992 32.8828C64.0299 33.5469 63.7956 34.2435 63.4961 34.9727C63.2096 35.7018 62.8385 36.3724 62.3828 36.9844C61.9271 37.5964 61.3737 38.1042 60.7227 38.5078C60.0846 38.9115 59.3359 39.1133 58.4766 39.1133C57.7734 39.1133 57.1615 38.9635 56.6406 38.6641C56.1198 38.3646 55.7096 37.9674 55.4102 37.4727C55.0065 37.9284 54.5182 38.3125 53.9453 38.625C53.3854 38.9505 52.7279 39.1133 51.9727 39.1133C51.1914 39.1133 50.5013 38.957 49.9023 38.6445C49.3164 38.332 48.8216 37.9089 48.418 37.375C48.0143 36.8281 47.7083 36.1901 47.5 35.4609C47.3047 34.7188 47.207 33.9245 47.207 33.0781C47.207 31.4115 47.474 29.9141 48.0078 28.5859C48.5417 27.2578 49.2513 26.1315 50.1367 25.207C51.0221 24.2695 52.0312 23.5534 53.1641 23.0586C54.3099 22.5638 55.4948 22.3164 56.7188 22.3164C57.2656 22.3164 57.7083 22.4661 58.0469 22.7656C58.3854 23.0651 58.5547 23.4753 58.5547 23.9961C58.5547 24.3346 58.5156 24.5755 58.4375 24.7188C58.3724 24.849 58.2422 24.9141 58.0469 24.9141C57.8646 24.9141 57.6758 24.901 57.4805 24.875C57.2852 24.849 57.0833 24.8359 56.875 24.8359C56.1198 24.8359 55.3516 25.0052 54.5703 25.3438C53.7891 25.6693 53.0794 26.1771 52.4414 26.8672C51.8164 27.5443 51.3021 28.4102 50.8984 29.4648C50.4948 30.5065 50.293 31.75 50.293 33.1953C50.293 34.25 50.4948 35.0638 50.8984 35.6367C51.3021 36.1966 51.8555 36.4766 52.5586 36.4766C53.1055 36.4766 53.5612 36.2747 53.9258 35.8711C54.2904 35.4544 54.5833 34.9661 54.8047 34.4062V28.2344C54.8047 28.0391 54.7917 27.8763 54.7656 27.7461C54.7526 27.6159 54.7331 27.5052 54.707 27.4141C54.694 27.3229 54.681 27.2448 54.668 27.1797C54.6549 27.1016 54.6484 27.0299 54.6484 26.9648C54.6484 26.7565 54.7461 26.5938 54.9414 26.4766C55.1497 26.3464 55.3971 26.2812 55.6836 26.2812C56.3477 26.2812 56.875 26.457 57.2656 26.8086C57.6562 27.1471 57.8516 27.5573 57.8516 28.0391V34.6406C57.8516 34.862 57.8776 35.0833 57.9297 35.3047C57.9818 35.513 58.0599 35.7083 58.1641 35.8906C58.2682 36.0599 58.4049 36.2031 58.5742 36.3203C58.7565 36.4245 58.9648 36.4766 59.1992 36.4766Z" fill="white"/>
<path d="M74.2188 14.9531C74.6224 14.263 75.0521 13.6185 75.5078 13.0195C75.9766 12.4206 76.4714 11.8997 76.9922 11.457C77.513 11.0013 78.0469 10.6432 78.5938 10.3828C79.1536 10.1224 79.7266 9.99219 80.3125 9.99219C80.5859 9.99219 80.8789 10.0508 81.1914 10.168C81.5169 10.2852 81.8164 10.4805 82.0898 10.7539C82.3633 11.0143 82.5846 11.3724 82.7539 11.8281C82.9362 12.2708 83.0273 12.8242 83.0273 13.4883V36.8086C83.0273 37.3034 83.0729 37.7135 83.1641 38.0391C83.2682 38.3776 83.3854 38.6576 83.5156 38.8789C83.6589 39.1003 83.8151 39.276 83.9844 39.4062C84.1536 39.5365 84.3034 39.6536 84.4336 39.7578C84.5768 39.862 84.694 39.9596 84.7852 40.0508C84.8893 40.1419 84.9414 40.2591 84.9414 40.4023C84.9414 40.5586 84.8893 40.7148 84.7852 40.8711C84.694 41.0273 84.5573 41.1706 84.375 41.3008C84.2057 41.444 83.9974 41.5547 83.75 41.6328C83.5026 41.724 83.2227 41.7695 82.9102 41.7695C82.6107 41.7695 82.2852 41.7044 81.9336 41.5742C81.5951 41.444 81.276 41.2096 80.9766 40.8711C80.6771 40.5456 80.4232 40.1094 80.2148 39.5625C80.0195 39.0156 79.9154 38.319 79.9023 37.4727V13.7227C79.9023 13.4622 79.8633 13.306 79.7852 13.2539C79.707 13.1888 79.6289 13.1562 79.5508 13.1562C79.3424 13.1562 79.069 13.319 78.7305 13.6445C78.3919 13.957 78.0208 14.3737 77.6172 14.8945C77.2266 15.4154 76.8294 16.0143 76.4258 16.6914C76.0221 17.3555 75.6576 18.0456 75.332 18.7617C75.0065 19.4779 74.7396 20.1875 74.5312 20.8906C74.3229 21.5807 74.2188 22.2057 74.2188 22.7656V38.1953C74.2188 38.5339 74.1081 38.7682 73.8867 38.8984C73.6654 39.0417 73.4049 39.1133 73.1055 39.1133C72.8711 39.1133 72.6367 39.0807 72.4023 39.0156C72.168 38.9505 71.9531 38.8659 71.7578 38.7617C71.5755 38.6576 71.4193 38.5339 71.2891 38.3906C71.1719 38.2604 71.1133 38.1172 71.1133 37.9609V13.1172C70.2148 13.2344 69.362 13.4883 68.5547 13.8789C67.7604 14.2695 67.0638 14.8034 66.4648 15.4805C65.8789 16.1576 65.4102 16.9779 65.0586 17.9414C64.7201 18.9049 64.5508 20.0182 64.5508 21.2812C64.5508 22.0885 64.6354 22.8177 64.8047 23.4688C64.974 24.1068 65.1758 24.6536 65.4102 25.1094C65.6445 25.5521 65.8789 25.8971 66.1133 26.1445C66.3477 26.3919 66.5299 26.5156 66.6602 26.5156C66.7773 26.5156 66.888 26.4896 66.9922 26.4375C67.0964 26.3854 67.2005 26.3594 67.3047 26.3594C67.513 26.3594 67.6172 26.5221 67.6172 26.8477C67.6172 27.1862 67.5521 27.5182 67.4219 27.8438C67.3047 28.1562 67.1419 28.4362 66.9336 28.6836C66.7253 28.918 66.4909 29.1133 66.2305 29.2695C65.9831 29.4128 65.7292 29.4844 65.4688 29.4844C65.1302 29.4844 64.7266 29.276 64.2578 28.8594C63.7891 28.4427 63.3398 27.8698 62.9102 27.1406C62.4935 26.4115 62.1354 25.5456 61.8359 24.543C61.5365 23.5404 61.3867 22.4531 61.3867 21.2812C61.3867 19.875 61.556 18.6185 61.8945 17.5117C62.2331 16.3919 62.6823 15.4154 63.2422 14.582C63.8151 13.7487 64.4792 13.0391 65.2344 12.4531C65.9896 11.8672 66.7839 11.3919 67.6172 11.0273C68.4505 10.6628 69.2969 10.4023 70.1562 10.2461C71.0156 10.0768 71.8359 9.99219 72.6172 9.99219C72.8255 9.99219 73.0273 10.0378 73.2227 10.1289C73.418 10.207 73.5872 10.3242 73.7305 10.4805C73.8737 10.6237 73.9909 10.7995 74.082 11.0078C74.1732 11.2161 74.2188 11.4375 74.2188 11.6719V14.9531ZM101.348 31.3984C101.374 31.2422 101.458 31.112 101.602 31.0078C101.758 30.9036 101.934 30.832 102.129 30.793C102.324 30.7539 102.526 30.7539 102.734 30.793C102.956 30.832 103.145 30.9232 103.301 31.0664C103.47 31.1966 103.587 31.3854 103.652 31.6328C103.73 31.8672 103.724 32.1732 103.633 32.5508C103.516 33.0977 103.32 33.612 103.047 34.0938C102.786 34.5625 102.454 34.9792 102.051 35.3438C101.647 35.7083 101.172 35.9948 100.625 36.2031C100.078 36.4115 99.4661 36.5156 98.7891 36.5156C98.4245 36.5156 98.0794 36.4961 97.7539 36.457C97.4414 36.418 97.1354 36.3464 96.8359 36.2422C96.3411 37.1016 95.7031 37.7917 94.9219 38.3125C94.1406 38.8464 93.1771 39.1133 92.0312 39.1133C91.0156 39.1133 90.1432 38.9115 89.4141 38.5078C88.6849 38.1172 88.0794 37.5833 87.5977 36.9062C87.1159 36.2161 86.7578 35.4219 86.5234 34.5234C86.3021 33.625 86.1914 32.6745 86.1914 31.6719C86.1914 30.2005 86.3607 28.8854 86.6992 27.7266C87.0508 26.5547 87.4544 25.5651 87.9102 24.7578C88.3659 23.9375 88.8151 23.3125 89.2578 22.8828C89.7135 22.4531 90.0521 22.2383 90.2734 22.2383C90.5339 22.2383 90.7682 22.3555 90.9766 22.5898C91.1979 22.8112 91.3542 23.0781 91.4453 23.3906C91.5495 23.6901 91.5755 23.9961 91.5234 24.3086C91.4844 24.6211 91.3346 24.862 91.0742 25.0312C90.918 25.2786 90.7292 25.5651 90.5078 25.8906C90.2995 26.2161 90.0977 26.6263 89.9023 27.1211C89.7201 27.6029 89.5638 28.1953 89.4336 28.8984C89.3034 29.6016 89.2383 30.4479 89.2383 31.4375C89.2383 32.2839 89.3099 33.0195 89.4531 33.6445C89.6094 34.2695 89.8177 34.7969 90.0781 35.2266C90.3516 35.6432 90.6576 35.9557 90.9961 36.1641C91.3477 36.3724 91.7188 36.4766 92.1094 36.4766C92.6823 36.4766 93.151 36.3398 93.5156 36.0664C93.8932 35.7799 94.2122 35.4089 94.4727 34.9531C93.5352 34.1458 92.819 33.1237 92.3242 31.8867C91.8424 30.6367 91.6016 29.2891 91.6016 27.8438C91.6016 27.2188 91.6667 26.6263 91.7969 26.0664C91.9401 25.4935 92.1419 24.9922 92.4023 24.5625C92.6758 24.1328 93.0143 23.7943 93.418 23.5469C93.8216 23.2865 94.2904 23.1562 94.8242 23.1562C95.293 23.1562 95.7357 23.3255 96.1523 23.6641C96.569 24.0026 96.9336 24.4714 97.2461 25.0703C97.5586 25.6693 97.7995 26.3789 97.9688 27.1992C98.151 28.0195 98.2422 28.9115 98.2422 29.875C98.2422 30.6172 98.1966 31.3529 98.1055 32.082C98.0143 32.8112 97.8711 33.5143 97.6758 34.1914C97.819 34.2435 97.9492 34.276 98.0664 34.2891C98.1966 34.2891 98.3333 34.2891 98.4766 34.2891C98.9062 34.2891 99.2839 34.2109 99.6094 34.0547C99.9479 33.8984 100.234 33.6901 100.469 33.4297C100.703 33.1693 100.892 32.8633 101.035 32.5117C101.178 32.1602 101.283 31.7891 101.348 31.3984ZM93.7109 27.6875C93.7109 28.5859 93.8477 29.4388 94.1211 30.2461C94.4076 31.0534 94.7786 31.7565 95.2344 32.3555C95.3125 31.7174 95.3516 31.1055 95.3516 30.5195C95.3516 29.8424 95.3385 29.2174 95.3125 28.6445C95.2995 28.0586 95.2539 27.5573 95.1758 27.1406C95.1107 26.724 95.013 26.3984 94.8828 26.1641C94.7656 25.9167 94.6029 25.793 94.3945 25.793C93.9388 25.793 93.7109 26.4245 93.7109 27.6875ZM101.367 24.6797C101.367 24.3021 101.335 24.0286 101.27 23.8594C101.217 23.6901 101.191 23.5339 101.191 23.3906C101.191 23.1953 101.296 23.0391 101.504 22.9219C101.712 22.7917 101.96 22.7266 102.246 22.7266C102.91 22.7266 103.431 22.9023 103.809 23.2539C104.199 23.5924 104.395 24.0026 104.395 24.4844V26.2812C104.668 25.7214 104.961 25.2005 105.273 24.7188C105.599 24.237 105.944 23.8203 106.309 23.4688C106.686 23.1042 107.083 22.8242 107.5 22.6289C107.93 22.4206 108.392 22.3164 108.887 22.3164C109.551 22.3164 110.098 22.4401 110.527 22.6875C110.957 22.9349 111.296 23.2539 111.543 23.6445C111.79 24.0352 111.96 24.4714 112.051 24.9531C112.155 25.4349 112.207 25.9036 112.207 26.3594V34.6406C112.207 34.7318 112.214 34.8815 112.227 35.0898C112.24 35.2852 112.279 35.487 112.344 35.6953C112.409 35.9036 112.507 36.0859 112.637 36.2422C112.78 36.3984 112.982 36.4766 113.242 36.4766C113.646 36.4766 113.991 36.3333 114.277 36.0469C114.577 35.7604 114.831 35.4023 115.039 34.9727C115.26 34.543 115.436 34.0807 115.566 33.5859C115.71 33.0781 115.827 32.6029 115.918 32.1602C115.996 31.7435 116.126 31.444 116.309 31.2617C116.491 31.0664 116.68 30.9688 116.875 30.9688C117.031 30.9688 117.194 31.0208 117.363 31.125C117.533 31.2161 117.682 31.3398 117.812 31.4961C117.956 31.6523 118.066 31.8281 118.145 32.0234C118.236 32.2188 118.281 32.4141 118.281 32.6094C118.281 32.6354 118.281 32.668 118.281 32.707C118.281 32.7461 118.268 32.8047 118.242 32.8828C118.073 33.5469 117.839 34.2435 117.539 34.9727C117.253 35.7018 116.875 36.3724 116.406 36.9844C115.951 37.5964 115.404 38.1042 114.766 38.5078C114.128 38.9115 113.379 39.1133 112.52 39.1133C111.986 39.1133 111.51 39.0091 111.094 38.8008C110.69 38.6055 110.339 38.3385 110.039 38C109.753 37.6615 109.531 37.2643 109.375 36.8086C109.232 36.3529 109.16 35.8711 109.16 35.3633V27.2383C109.16 26.9258 109.154 26.6328 109.141 26.3594C109.128 26.0859 109.089 25.8451 109.023 25.6367C108.971 25.4284 108.887 25.2656 108.77 25.1484C108.665 25.0182 108.516 24.9531 108.32 24.9531C108.034 24.9531 107.682 25.1484 107.266 25.5391C106.849 25.9297 106.439 26.4375 106.035 27.0625C105.632 27.6875 105.273 28.3971 104.961 29.1914C104.661 29.9727 104.473 30.7604 104.395 31.5547V37.3945C104.395 37.5898 104.388 37.7917 104.375 38C104.375 38.1953 104.336 38.3711 104.258 38.5273C104.193 38.6966 104.082 38.8333 103.926 38.9375C103.783 39.0547 103.568 39.1133 103.281 39.1133C103.086 39.1133 102.871 39.0872 102.637 39.0352C102.415 38.9961 102.207 38.9115 102.012 38.7812C101.829 38.6641 101.673 38.4883 101.543 38.2539C101.426 38.0326 101.367 37.7331 101.367 37.3555V24.6797ZM127.129 36.4766C127.533 36.4766 127.878 36.3333 128.164 36.0469C128.464 35.7604 128.717 35.4023 128.926 34.9727C129.147 34.543 129.323 34.0807 129.453 33.5859C129.596 33.0781 129.714 32.6029 129.805 32.1602C129.896 31.7435 130.026 31.444 130.195 31.2617C130.378 31.0664 130.573 30.9688 130.781 30.9688C130.938 30.9688 131.094 31.0208 131.25 31.125C131.419 31.2161 131.569 31.3398 131.699 31.4961C131.842 31.6523 131.953 31.8281 132.031 32.0234C132.122 32.2188 132.168 32.4141 132.168 32.6094C132.168 32.6354 132.168 32.668 132.168 32.707C132.168 32.7461 132.155 32.8047 132.129 32.8828C131.96 33.5469 131.725 34.2435 131.426 34.9727C131.139 35.7018 130.768 36.3724 130.312 36.9844C129.857 37.5964 129.303 38.1042 128.652 38.5078C128.014 38.9115 127.266 39.1133 126.406 39.1133C125.703 39.1133 125.091 38.9635 124.57 38.6641C124.049 38.3646 123.639 37.9674 123.34 37.4727C122.936 37.9284 122.448 38.3125 121.875 38.625C121.315 38.9505 120.658 39.1133 119.902 39.1133C119.121 39.1133 118.431 38.957 117.832 38.6445C117.246 38.332 116.751 37.9089 116.348 37.375C115.944 36.8281 115.638 36.1901 115.43 35.4609C115.234 34.7188 115.137 33.9245 115.137 33.0781C115.137 31.4115 115.404 29.9141 115.938 28.5859C116.471 27.2578 117.181 26.1315 118.066 25.207C118.952 24.2695 119.961 23.5534 121.094 23.0586C122.24 22.5638 123.424 22.3164 124.648 22.3164C125.195 22.3164 125.638 22.4661 125.977 22.7656C126.315 23.0651 126.484 23.4753 126.484 23.9961C126.484 24.3346 126.445 24.5755 126.367 24.7188C126.302 24.849 126.172 24.9141 125.977 24.9141C125.794 24.9141 125.605 24.901 125.41 24.875C125.215 24.849 125.013 24.8359 124.805 24.8359C124.049 24.8359 123.281 25.0052 122.5 25.3438C121.719 25.6693 121.009 26.1771 120.371 26.8672C119.746 27.5443 119.232 28.4102 118.828 29.4648C118.424 30.5065 118.223 31.75 118.223 33.1953C118.223 34.25 118.424 35.0638 118.828 35.6367C119.232 36.1966 119.785 36.4766 120.488 36.4766C121.035 36.4766 121.491 36.2747 121.855 35.8711C122.22 35.4544 122.513 34.9661 122.734 34.4062V28.2344C122.734 28.0391 122.721 27.8763 122.695 27.7461C122.682 27.6159 122.663 27.5052 122.637 27.4141C122.624 27.3229 122.611 27.2448 122.598 27.1797C122.585 27.1016 122.578 27.0299 122.578 26.9648C122.578 26.7565 122.676 26.5938 122.871 26.4766C123.079 26.3464 123.327 26.2812 123.613 26.2812C124.277 26.2812 124.805 26.457 125.195 26.8086C125.586 27.1471 125.781 27.5573 125.781 28.0391V34.6406C125.781 34.862 125.807 35.0833 125.859 35.3047C125.911 35.513 125.99 35.7083 126.094 35.8906C126.198 36.0599 126.335 36.2031 126.504 36.3203C126.686 36.4245 126.895 36.4766 127.129 36.4766Z" fill="#2DA83A"/>
<path d="M96.0337 48.0771H98.0586V43.6401C98.0586 43.1789 98.1242 42.8319 98.2554 42.5991C98.3908 42.3664 98.5516 42.25 98.7378 42.25C98.8309 42.25 98.9176 42.2775 98.998 42.3325C99.0827 42.3875 99.1567 42.4531 99.2202 42.5293C99.2837 42.6012 99.3324 42.6774 99.3662 42.7578C99.4043 42.834 99.4233 42.8953 99.4233 42.9419C99.4233 42.9884 99.4043 43.016 99.3662 43.0244C99.3324 43.0286 99.2922 43.0519 99.2456 43.0942C99.2033 43.1323 99.1631 43.2106 99.125 43.3291C99.0911 43.4476 99.0742 43.6423 99.0742 43.9131V52.0635C99.0742 52.1735 99.0361 52.2497 98.96 52.292C98.888 52.3385 98.8034 52.3618 98.7061 52.3618C98.6299 52.3618 98.5537 52.3512 98.4775 52.3301C98.4014 52.3089 98.3315 52.2814 98.2681 52.2476C98.2088 52.2137 98.158 52.1735 98.1157 52.127C98.0776 52.0846 98.0586 52.0381 98.0586 51.9873V48.9849H96.0337V52.0635C96.0337 52.1735 95.9956 52.2497 95.9194 52.292C95.8475 52.3385 95.7629 52.3618 95.6655 52.3618C95.5894 52.3618 95.5132 52.3512 95.437 52.3301C95.3608 52.3089 95.291 52.2814 95.2275 52.2476C95.1683 52.2137 95.1175 52.1735 95.0752 52.127C95.0371 52.0846 95.0181 52.0381 95.0181 51.9873V48.9849H94.0913C94.0236 48.9849 93.9601 48.9637 93.9009 48.9214C93.8459 48.8791 93.7972 48.8262 93.7549 48.7627C93.7168 48.695 93.6851 48.623 93.6597 48.5469C93.6385 48.4707 93.6279 48.3988 93.6279 48.3311C93.6279 48.2591 93.6427 48.1999 93.6724 48.1533C93.7062 48.1025 93.7549 48.0771 93.8184 48.0771H95.0181V43.875C94.616 43.875 94.2458 43.9427 93.9072 44.0781C93.5729 44.2093 93.283 44.3997 93.0376 44.6494C92.7964 44.8949 92.606 45.1932 92.4663 45.5444C92.3309 45.8957 92.2632 46.2892 92.2632 46.7251C92.2632 47.0002 92.2907 47.2477 92.3457 47.4678C92.4007 47.6878 92.4663 47.8761 92.5425 48.0327C92.6187 48.1851 92.6948 48.3035 92.771 48.3882C92.8472 48.4728 92.9064 48.5151 92.9487 48.5151C92.9868 48.5151 93.0143 48.5046 93.0312 48.4834C93.0482 48.4622 93.0736 48.4517 93.1074 48.4517C93.1413 48.4517 93.1624 48.4749 93.1709 48.5215C93.1794 48.568 93.1836 48.6146 93.1836 48.6611C93.1836 48.7965 93.1561 48.9256 93.1011 49.0483C93.0461 49.1668 92.9762 49.2642 92.8916 49.3403C92.8112 49.4123 92.7202 49.4567 92.6187 49.4736C92.5171 49.4906 92.4198 49.4652 92.3267 49.3975C92.2124 49.3171 92.0897 49.2028 91.9585 49.0547C91.8315 48.9023 91.7131 48.7161 91.603 48.4961C91.4972 48.276 91.4084 48.0221 91.3364 47.7344C91.2687 47.4424 91.2349 47.1187 91.2349 46.7632C91.2349 46.3019 91.2941 45.8872 91.4126 45.519C91.5353 45.1466 91.6982 44.8187 91.9014 44.5352C92.1087 44.2474 92.3521 44.002 92.6313 43.7988C92.9106 43.5915 93.2069 43.4222 93.52 43.291C93.8374 43.1556 94.1654 43.0562 94.5039 42.9927C94.8467 42.9292 95.1831 42.8975 95.5132 42.8975C95.5809 42.8975 95.6465 42.9123 95.71 42.9419C95.7734 42.9673 95.8285 43.0054 95.875 43.0562C95.9215 43.1027 95.9596 43.1598 95.9893 43.2275C96.0189 43.2952 96.0337 43.3672 96.0337 43.4434V48.0771ZM104.908 47.582C104.908 47.3281 104.895 47.0636 104.87 46.7886H104.622C104.351 46.7886 104.097 46.7505 103.86 46.6743C103.623 46.5981 103.416 46.4881 103.238 46.3442C103.065 46.2004 102.927 46.029 102.826 45.8301C102.724 45.627 102.673 45.4006 102.673 45.1509C102.673 44.9816 102.701 44.8229 102.756 44.6748C102.815 44.5225 102.896 44.3913 102.997 44.2812C103.103 44.167 103.228 44.0781 103.372 44.0146C103.515 43.9469 103.676 43.9131 103.854 43.9131C104.091 43.9131 104.303 43.9575 104.489 44.0464C104.679 44.1353 104.846 44.2559 104.99 44.4082C105.134 44.5563 105.259 44.7319 105.365 44.9351C105.471 45.134 105.559 45.3477 105.631 45.5762C105.699 45.5381 105.763 45.4915 105.822 45.4365C105.881 45.3815 105.94 45.3201 106 45.2524C106.038 45.1382 106.088 45.0811 106.152 45.0811C106.198 45.0811 106.245 45.1022 106.292 45.1445C106.342 45.1826 106.389 45.2355 106.431 45.3032C106.473 45.3709 106.507 45.4471 106.533 45.5317C106.558 45.6121 106.571 45.6968 106.571 45.7856C106.571 45.9465 106.503 46.0924 106.368 46.2236C106.232 46.3506 106.057 46.4606 105.841 46.5537C105.866 46.7357 105.885 46.9134 105.898 47.0869C105.915 47.2604 105.923 47.4255 105.923 47.582C105.923 48.403 105.841 49.1139 105.676 49.7148C105.511 50.3158 105.291 50.813 105.016 51.2065C104.741 51.5959 104.425 51.8857 104.07 52.0762C103.719 52.2666 103.353 52.3618 102.972 52.3618C102.498 52.3618 102.081 52.2497 101.721 52.0254C101.361 51.8053 101.059 51.5028 100.813 51.1177C100.572 50.7326 100.39 50.284 100.268 49.772C100.145 49.2557 100.083 48.7077 100.083 48.1279C100.083 47.3916 100.147 46.7463 100.274 46.1919C100.405 45.6333 100.568 45.153 100.763 44.751C100.962 44.349 101.177 44.0146 101.41 43.748C101.643 43.4814 101.859 43.2677 102.058 43.1069C102.261 42.9461 102.432 42.8319 102.572 42.7642C102.716 42.6965 102.796 42.6584 102.813 42.6499C102.834 42.6414 102.855 42.6351 102.876 42.6309C102.902 42.6266 102.929 42.6245 102.959 42.6245C103.031 42.6245 103.094 42.6478 103.149 42.6943C103.204 42.7367 103.251 42.7917 103.289 42.8594C103.327 42.9229 103.357 42.9948 103.378 43.0752C103.399 43.1556 103.41 43.2318 103.41 43.3037C103.41 43.3883 103.397 43.4603 103.372 43.5195C103.346 43.5745 103.304 43.6021 103.245 43.6021C103.215 43.6021 103.192 43.5978 103.175 43.5894C103.099 43.6317 102.995 43.693 102.864 43.7734C102.737 43.8538 102.597 43.966 102.445 44.1099C102.292 44.2495 102.138 44.4272 101.981 44.6431C101.825 44.8589 101.683 45.1234 101.556 45.4365C101.429 45.7454 101.326 46.1115 101.245 46.5347C101.165 46.9536 101.125 47.4403 101.125 47.9946C101.125 48.5828 101.18 49.0907 101.29 49.5181C101.4 49.9455 101.543 50.2988 101.721 50.5781C101.899 50.8532 102.1 51.0584 102.324 51.1938C102.549 51.325 102.777 51.3906 103.01 51.3906C103.281 51.3906 103.53 51.306 103.759 51.1367C103.992 50.9674 104.19 50.722 104.355 50.4004C104.525 50.0745 104.658 49.6768 104.755 49.207C104.853 48.7331 104.903 48.1914 104.908 47.582ZM104.736 45.8872C104.702 45.7391 104.662 45.6016 104.616 45.4746C104.569 45.3477 104.512 45.2397 104.444 45.1509C104.377 45.0578 104.3 44.9858 104.216 44.9351C104.135 44.88 104.044 44.8525 103.943 44.8525C103.812 44.8525 103.725 44.8885 103.683 44.9604C103.64 45.0324 103.619 45.1043 103.619 45.1763C103.619 45.2524 103.636 45.3328 103.67 45.4175C103.708 45.5021 103.765 45.5804 103.841 45.6523C103.922 45.7201 104.023 45.7772 104.146 45.8237C104.269 45.866 104.415 45.8872 104.584 45.8872H104.736ZM113.337 51.7524C113.388 51.7863 113.399 51.8371 113.369 51.9048C113.34 51.9725 113.285 52.0402 113.204 52.1079C113.124 52.1799 113.028 52.2412 112.918 52.292C112.808 52.3428 112.698 52.366 112.588 52.3618C112.483 52.3576 112.379 52.3258 112.277 52.2666C112.176 52.2074 112.085 52.1164 112.004 51.9937C111.928 51.8667 111.865 51.7101 111.814 51.5239C111.767 51.3377 111.744 51.1156 111.744 50.8574V44.8398C111.744 44.5944 111.719 44.404 111.668 44.2686C111.621 44.1331 111.564 44.0358 111.497 43.9766C111.433 43.9131 111.365 43.8771 111.293 43.8687C111.226 43.856 111.171 43.8496 111.128 43.8496C111.082 43.8496 111.023 43.856 110.951 43.8687C110.879 43.8813 110.809 43.9237 110.741 43.9956C110.678 44.0633 110.623 44.1733 110.576 44.3257C110.53 44.4738 110.506 44.6875 110.506 44.9668V51.9873C110.519 51.9873 110.532 51.9937 110.544 52.0063C110.561 52.0233 110.57 52.0381 110.57 52.0508C110.57 52.0846 110.544 52.1185 110.494 52.1523C110.447 52.1904 110.388 52.2243 110.316 52.2539C110.244 52.2878 110.161 52.3132 110.068 52.3301C109.979 52.3512 109.895 52.3618 109.814 52.3618C109.73 52.3618 109.654 52.3512 109.586 52.3301C109.522 52.3089 109.491 52.237 109.491 52.1143V44.8398C109.491 44.5944 109.467 44.404 109.421 44.2686C109.379 44.1331 109.326 44.0358 109.262 43.9766C109.199 43.9131 109.131 43.8771 109.059 43.8687C108.991 43.856 108.932 43.8496 108.881 43.8496C108.839 43.8496 108.782 43.856 108.71 43.8687C108.642 43.8771 108.575 43.9131 108.507 43.9766C108.439 44.0358 108.38 44.1331 108.329 44.2686C108.283 44.404 108.259 44.5944 108.259 44.8398V50.5972C108.259 51.1727 108.164 51.6107 107.974 51.9111C107.783 52.2116 107.506 52.3618 107.142 52.3618C107.019 52.3618 106.918 52.3407 106.837 52.2983C106.761 52.256 106.7 52.2031 106.653 52.1396C106.607 52.0762 106.573 52.0085 106.552 51.9365C106.535 51.8646 106.526 51.799 106.526 51.7397C106.526 51.7101 106.535 51.6911 106.552 51.6826C106.573 51.6742 106.6 51.6699 106.634 51.6699C106.668 51.6699 106.706 51.6699 106.749 51.6699C106.791 51.6657 106.835 51.6551 106.882 51.6382C106.924 51.6213 106.966 51.5874 107.009 51.5366C107.055 51.4858 107.096 51.4118 107.129 51.3145C107.163 51.2171 107.191 51.0944 107.212 50.9463C107.233 50.7982 107.244 50.6162 107.244 50.4004V44.9668C107.244 44.5859 107.29 44.2643 107.383 44.002C107.481 43.7396 107.605 43.5259 107.758 43.3608C107.91 43.1958 108.082 43.0773 108.272 43.0054C108.467 42.9334 108.661 42.8975 108.856 42.8975C108.911 42.8975 108.985 42.9038 109.078 42.9165C109.171 42.925 109.273 42.9482 109.383 42.9863C109.497 43.0244 109.611 43.0794 109.726 43.1514C109.84 43.2191 109.948 43.3122 110.049 43.4307C110.13 43.3122 110.219 43.2191 110.316 43.1514C110.413 43.0794 110.508 43.0244 110.602 42.9863C110.699 42.9482 110.79 42.925 110.875 42.9165C110.963 42.9038 111.04 42.8975 111.103 42.8975C111.306 42.8975 111.505 42.9334 111.7 43.0054C111.899 43.0773 112.074 43.1958 112.227 43.3608C112.383 43.5259 112.51 43.7396 112.607 44.002C112.705 44.2643 112.753 44.5859 112.753 44.9668V50.7495C112.753 50.8849 112.768 51.0076 112.798 51.1177C112.832 51.2235 112.874 51.3187 112.925 51.4033C112.98 51.4837 113.043 51.5535 113.115 51.6128C113.187 51.6678 113.261 51.7144 113.337 51.7524ZM119.057 51.0669C119.002 51.16 118.906 51.2912 118.771 51.4604C118.64 51.6255 118.464 51.7905 118.244 51.9556C118.024 52.1164 117.757 52.256 117.444 52.3745C117.131 52.4972 116.767 52.5586 116.353 52.5586C116.039 52.5586 115.745 52.5099 115.47 52.4126C115.195 52.3195 114.952 52.182 114.74 52C114.533 51.818 114.368 51.5959 114.245 51.3335C114.127 51.0669 114.067 50.7643 114.067 50.4258C114.067 50.1888 114.099 49.9688 114.163 49.7656C114.23 49.5625 114.317 49.3784 114.423 49.2134C114.533 49.0483 114.658 48.9023 114.797 48.7754C114.941 48.6484 115.091 48.5448 115.248 48.4644C115.104 48.3755 114.965 48.2697 114.829 48.147C114.694 48.02 114.573 47.8698 114.467 47.6963C114.361 47.5228 114.277 47.326 114.213 47.106C114.15 46.8817 114.118 46.6278 114.118 46.3442C114.118 46.0565 114.158 45.7666 114.239 45.4746C114.323 45.1826 114.44 44.9012 114.588 44.6304C114.74 44.3553 114.922 44.1014 115.134 43.8687C115.345 43.6317 115.578 43.4264 115.832 43.2529C116.09 43.0752 116.365 42.9355 116.657 42.834C116.953 42.7324 117.26 42.6816 117.578 42.6816C117.874 42.6816 118.136 42.7261 118.365 42.8149C118.597 42.9038 118.792 43.0265 118.949 43.1831C119.105 43.3354 119.224 43.5174 119.304 43.729C119.385 43.9364 119.425 44.1585 119.425 44.3955C119.425 44.734 119.359 45.0641 119.228 45.3857C119.101 45.7074 118.928 45.9951 118.708 46.249C118.487 46.4987 118.231 46.7018 117.939 46.8584C117.647 47.0107 117.341 47.0869 117.019 47.0869C116.939 47.0869 116.856 47.0763 116.771 47.0552C116.687 47.034 116.609 47.0002 116.537 46.9536C116.469 46.9028 116.412 46.8372 116.365 46.7568C116.323 46.6764 116.302 46.5791 116.302 46.4648C116.302 46.4183 116.304 46.3675 116.308 46.3125C116.317 46.2575 116.327 46.2067 116.34 46.1602C116.353 46.1136 116.367 46.0755 116.384 46.0459C116.401 46.012 116.422 45.9951 116.448 45.9951C116.469 45.9951 116.488 46.0015 116.505 46.0142C116.526 46.0269 116.551 46.0417 116.581 46.0586C116.615 46.0755 116.659 46.0903 116.714 46.103C116.769 46.1157 116.843 46.1221 116.937 46.1221C117.152 46.1221 117.349 46.0713 117.527 45.9697C117.709 45.8639 117.863 45.7285 117.99 45.5635C118.117 45.3984 118.217 45.2122 118.289 45.0049C118.361 44.7975 118.396 44.5902 118.396 44.3828C118.396 44.1458 118.32 43.9702 118.168 43.856C118.016 43.7375 117.819 43.6782 117.578 43.6782C117.252 43.6782 116.943 43.7565 116.651 43.9131C116.359 44.0654 116.101 44.2664 115.876 44.5161C115.656 44.7616 115.481 45.0387 115.35 45.3477C115.223 45.6566 115.159 45.9676 115.159 46.2808C115.159 46.522 115.199 46.7463 115.28 46.9536C115.364 47.161 115.47 47.3429 115.597 47.4995C115.728 47.6519 115.87 47.7746 116.022 47.8677C116.179 47.9565 116.329 48.0073 116.473 48.02C116.494 48.0116 116.513 48.0073 116.53 48.0073C116.547 48.0073 116.566 48.0073 116.587 48.0073C116.668 48.0073 116.725 48.0391 116.759 48.1025C116.793 48.1618 116.81 48.2337 116.81 48.3184C116.81 48.3903 116.799 48.4665 116.778 48.5469C116.761 48.623 116.738 48.695 116.708 48.7627C116.683 48.8262 116.651 48.8812 116.613 48.9277C116.575 48.9701 116.537 48.9933 116.499 48.9976C116.363 49.0145 116.213 49.0483 116.048 49.0991C115.887 49.1499 115.737 49.2303 115.597 49.3403C115.458 49.4461 115.341 49.5858 115.248 49.7593C115.155 49.9285 115.108 50.1423 115.108 50.4004C115.108 50.5654 115.14 50.7178 115.204 50.8574C115.267 50.9971 115.356 51.1177 115.47 51.2192C115.584 51.3166 115.718 51.3927 115.87 51.4478C116.027 51.5028 116.196 51.5303 116.378 51.5303C116.649 51.5303 116.892 51.4922 117.108 51.416C117.328 51.3398 117.518 51.2467 117.679 51.1367C117.84 51.0267 117.971 50.9103 118.073 50.7876C118.174 50.6649 118.246 50.557 118.289 50.4639C118.322 50.3877 118.363 50.3327 118.409 50.2988C118.46 50.265 118.511 50.248 118.562 50.248C118.625 50.248 118.688 50.2671 118.752 50.3052C118.815 50.3433 118.873 50.394 118.923 50.4575C118.974 50.5168 119.014 50.5845 119.044 50.6606C119.078 50.7326 119.095 50.8066 119.095 50.8828C119.095 50.9505 119.082 51.0119 119.057 51.0669ZM121.989 52.4697C121.714 52.4697 121.486 52.438 121.304 52.3745C121.122 52.3153 120.978 52.2476 120.872 52.1714C120.766 52.0952 120.692 52.0233 120.65 51.9556C120.608 51.8836 120.586 51.8371 120.586 51.8159C120.586 51.7397 120.603 51.6593 120.637 51.5747C120.671 51.4858 120.713 51.4054 120.764 51.3335C120.815 51.2573 120.87 51.1938 120.929 51.1431C120.988 51.0923 121.041 51.0669 121.088 51.0669C121.147 51.0669 121.196 51.105 121.234 51.1812C121.242 51.1896 121.264 51.2108 121.297 51.2446C121.331 51.2785 121.378 51.3145 121.437 51.3525C121.5 51.3864 121.577 51.4181 121.666 51.4478C121.759 51.4774 121.867 51.4922 121.989 51.4922C122.256 51.4922 122.474 51.4118 122.643 51.251C122.812 51.0859 122.897 50.8638 122.897 50.5845C122.897 50.3898 122.85 50.2163 122.757 50.064C122.668 49.9116 122.55 49.7699 122.402 49.6387C122.254 49.5075 122.084 49.3805 121.894 49.2578C121.704 49.1309 121.509 48.9997 121.31 48.8643C121.111 48.7288 120.917 48.5828 120.726 48.4263C120.536 48.2697 120.366 48.0898 120.218 47.8867C120.07 47.6836 119.95 47.4551 119.856 47.2012C119.768 46.943 119.723 46.6489 119.723 46.3188C119.723 46.0353 119.772 45.7497 119.869 45.4619C119.966 45.1742 120.1 44.9012 120.269 44.6431C120.443 44.3807 120.646 44.1374 120.878 43.9131C121.111 43.6846 121.363 43.4878 121.634 43.3228C121.905 43.1535 122.186 43.0223 122.478 42.9292C122.774 42.8319 123.07 42.7832 123.367 42.7832C123.621 42.7832 123.849 42.8234 124.052 42.9038C124.255 42.9842 124.427 43.0985 124.566 43.2466C124.706 43.3905 124.814 43.5661 124.89 43.7734C124.966 43.9766 125.004 44.2051 125.004 44.459C125.004 44.7002 124.962 44.9372 124.877 45.1699C124.793 45.4027 124.681 45.6227 124.541 45.8301C124.401 46.0374 124.243 46.23 124.065 46.4077C123.891 46.5812 123.712 46.7336 123.525 46.8647C123.343 46.9917 123.166 47.0911 122.992 47.1631C122.819 47.235 122.666 47.271 122.535 47.271C122.421 47.271 122.317 47.2456 122.224 47.1948C122.135 47.1398 122.059 47.0742 121.996 46.998C121.936 46.9176 121.89 46.8351 121.856 46.7505C121.822 46.6616 121.805 46.5833 121.805 46.5156C121.805 46.4606 121.812 46.4246 121.824 46.4077C121.841 46.3908 121.862 46.3844 121.888 46.3887C121.917 46.3887 121.953 46.395 121.996 46.4077C122.038 46.4162 122.087 46.4204 122.142 46.4204C122.319 46.4204 122.516 46.359 122.732 46.2363C122.948 46.1136 123.151 45.957 123.341 45.7666C123.532 45.5762 123.69 45.3667 123.817 45.1382C123.949 44.9097 124.014 44.6875 124.014 44.4717C124.014 44.2516 123.959 44.0781 123.849 43.9512C123.743 43.8242 123.561 43.7607 123.303 43.7607C123.142 43.7607 122.967 43.7925 122.776 43.856C122.59 43.9152 122.402 43.9998 122.211 44.1099C122.021 44.2199 121.837 44.3532 121.659 44.5098C121.481 44.6663 121.325 44.8398 121.189 45.0303C121.054 45.2165 120.944 45.4196 120.859 45.6396C120.779 45.8555 120.739 46.0819 120.739 46.3188C120.739 46.5685 120.783 46.7928 120.872 46.9917C120.965 47.1864 121.086 47.3641 121.234 47.5249C121.386 47.6857 121.558 47.8338 121.748 47.9692C121.938 48.1047 122.133 48.2401 122.332 48.3755C122.531 48.5067 122.726 48.6442 122.916 48.7881C123.106 48.9277 123.276 49.0843 123.424 49.2578C123.576 49.4271 123.697 49.6175 123.786 49.8291C123.879 50.0365 123.925 50.2756 123.925 50.5464C123.925 50.8088 123.875 51.0584 123.773 51.2954C123.676 51.5282 123.54 51.7313 123.367 51.9048C123.193 52.0783 122.988 52.2158 122.751 52.3174C122.514 52.4189 122.26 52.4697 121.989 52.4697Z" fill="#C9C9C9"/>
</svg>
