<svg xmlns="http://www.w3.org/2000/svg" viewBox="0 0 1200 800"><defs><style>.cls-1{fill:#434952;}</style></defs><g id="Graphic_Elements" data-name="Graphic Elements"><path class="cls-1" d="M1135.11,266.5c-7.19,67.37-52.16,129.14-114.25,156.35C988,437.25,950.4,441.72,915,436.42a195.65,195.65,0,0,1-52.26-15.23c-4.67-2.13-9.33-4.46-13.91-7a130,130,0,0,0,11.55-32.12c3.42-16.14,3.11-35.51-7.87-48.85-11.78-14.32-31.72-13.72-45.17-2.25-14.58,12.44-18.66,32.52-11.58,50,6.57,16.24,19.78,28.47,34.19,38.09-.47.73-.87,1.49-1.35,2.22-29.9,45.59-85.81,72.62-139.83,71.92a139.91,139.91,0,0,1-57.61-13c11.35-13.72,20.18-29.32,24.41-46.12,7-27.79,3.07-66.31-27.38-78.32-17.41-6.86-36.27-.52-49.1,12.28a59.55,59.55,0,0,0-16.84,51.49c4.24,27.62,24.22,49.73,47.81,64.56a155.24,155.24,0,0,1-76.52,41.29c-33.88,7.16-69.57,1.06-99.9-15.38A160.45,160.45,0,0,1,389.56,475c17.7-12.46,31.67-29.68,35.9-51.59,2.59-13.4,2.09-28.77-6.44-40.07-9.71-12.87-27.2-15.84-41.44-9-18.13,8.69-27.13,28.81-25.42,48.24,1.59,18.17,10.06,35,20.62,49.68C350,485,323.11,490,297.22,487.31c-31.14-3.24-60.26-19-78.82-44.38-2.28-3.12-4.41-6.35-6.38-9.66a102.5,102.5,0,0,0,20.66-57.95c1-25.46-7.49-51.13-25.75-69.24a5.23,5.23,0,0,0-8.13,1.05c-21.28,38.91-19.39,87.65,1,126.12-26.55,28.77-70.85,29.88-104,9.4-20.29-12.55-35.7-32.1-40.18-55.83-.7-3.75-6.17-2.08-5.64,1.56,6.67,46.42,53.82,79.43,99.32,77.88a80.54,80.54,0,0,0,55.36-24.6c12.06,19.18,29,35.18,50.28,45.11,32.36,15.12,70.76,16.26,104.22,4a136.41,136.41,0,0,0,20.51-9.53,165.8,165.8,0,0,0,96.18,56.74c38.31,7.19,77.92-.44,111.35-20.37a175.88,175.88,0,0,0,34.38-26.85c4.5,2.29,9.05,4.35,13.58,6.11,59.18,23,129.84,5.28,176.71-35.75a162.2,162.2,0,0,0,29.9-34.71c34.34,19.27,74.47,28.14,113.72,26,40.29-2.18,79.56-15.85,111.74-40.35a215.76,215.76,0,0,0,69.06-90.57A202.65,202.65,0,0,0,1150,266.5C1151,257,1136.12,257.09,1135.11,266.5ZM194.63,355.12a112.88,112.88,0,0,1,9.9-36.32C228.7,348,227.8,393,207.08,424.07A129.39,129.39,0,0,1,194.63,355.12Zm171,76.65c-4.63-17.53-.85-37.7,16.44-46.76,11.43-6,25.36-1.93,30.56,10.07,4.82,11.12,2.81,24.57-1.07,35.63-4.74,13.54-14.08,24-25.35,32.66-1.23.94-2.5,1.84-3.76,2.73A103.59,103.59,0,0,1,365.67,431.77Zm217.86-48.51c8.79-12.42,24.28-20.87,39.43-15.45,11.47,4.12,18,14.78,20.88,26.14,7.24,29.11-5.92,58.2-24.46,80.11q-4.39-2.65-8.6-5.67C584.75,449.62,562,413.72,583.53,383.26Zm235,8c-10.87-12.1-17-28.86-7.49-43.55,7.32-11.25,23.1-16.73,31.94-4,7.89,11.41,5.94,28,2.47,40.56a127.08,127.08,0,0,1-8.73,22.55A99.84,99.84,0,0,1,818.57,391.24Z"/></g></svg>